<svg xmlns="http://www.w3.org/2000/svg" xmlns:xlink="http://www.w3.org/1999/xlink"><defs><symbol fill="none" viewBox="0 0 24 24" stroke="currentColor" stroke-width="2" id="arrow-left"><path stroke-linecap="round" stroke-linejoin="round" d="m11 17-5-5m0 0 5-5m-5 5h12" /></symbol><symbol fill="currentColor" viewBox="0 0 20 20" id="arrow-left2"><path fill-rule="evenodd" d="M12.707 5.293a1 1 0 0 1 0 1.414L9.414 10l3.293 3.293a1 1 0 0 1-1.414 1.414l-4-4a1 1 0 0 1 0-1.414l4-4a1 1 0 0 1 1.414 0z" clip-rule="evenodd" /></symbol><symbol fill="currentColor" viewBox="0 0 20 20" id="arrow-right"><path fill-rule="evenodd" d="M7.293 14.707a1 1 0 0 1 0-1.414L10.586 10 7.293 6.707a1 1 0 0 1 1.414-1.414l4 4a1 1 0 0 1 0 1.414l-4 4a1 1 0 0 1-1.414 0z" clip-rule="evenodd" /></symbol><symbol fill="none" viewBox="0 0 24 24" stroke="currentColor" stroke-width="2" id="categories"><path stroke-linecap="round" stroke-linejoin="round" d="M19 11H5m14 0a2 2 0 0 1 2 2v6a2 2 0 0 1-2 2H5a2 2 0 0 1-2-2v-6a2 2 0 0 1 2-2m14 0V9a2 2 0 0 0-2-2M5 11V9a2 2 0 0 1 2-2m0 0V5a2 2 0 0 1 2-2h6a2 2 0 0 1 2 2v2M7 7h10" /></symbol><symbol fill="none" viewBox="0 0 24 24" stroke="currentColor" stroke-width="2" id="close"><path stroke-linecap="round" stroke-linejoin="round" d="M6 18 18 6M6 6l12 12" /></symbol><symbol fill="currentColor" viewBox="0 0 20 20" id="danger"><path fill-rule="evenodd" d="M8.257 3.099c.765-1.36 2.722-1.36 3.486 0l5.58 9.92c.75 1.334-.213 2.98-1.742 2.98H4.42c-1.53 0-2.493-1.646-1.743-2.98l5.58-9.92zM11 13a1 1 0 1 1-2 0 1 1 0 0 1 2 0zm-1-8a1 1 0 0 0-1 1v3a1 1 0 0 0 2 0V6a1 1 0 0 0-1-1z" clip-rule="evenodd" /></symbol><symbol fill="none" viewBox="0 0 24 24" stroke="currentColor" stroke-width="2" id="dots"><path stroke-linecap="round" stroke-linejoin="round" d="M12 5v.01M12 12v.01M12 19v.01M12 6a1 1 0 1 1 0-2 1 1 0 0 1 0 2zm0 7a1 1 0 1 1 0-2 1 1 0 0 1 0 2zm0 7a1 1 0 1 1 0-2 1 1 0 0 1 0 2z" /></symbol><symbol fill="none" viewBox="0 0 24 24" stroke="currentColor" stroke-width="2" id="home"><path stroke-linecap="round" stroke-linejoin="round" d="m3 12 2-2m0 0 7-7 7 7M5 10v10a1 1 0 0 0 1 1h3m10-11 2 2m-2-2v10a1 1 0 0 1-1 1h-3m-6 0a1 1 0 0 0 1-1v-4a1 1 0 0 1 1-1h2a1 1 0 0 1 1 1v4a1 1 0 0 0 1 1m-6 0h6" /></symbol><symbol fill="none" viewBox="0 0 24 24" stroke="currentColor" stroke-width="2" id="logout"><path stroke-linecap="round" stroke-linejoin="round" d="m17 16 4-4m0 0-4-4m4 4H7m6 4v1a3 3 0 0 1-3 3H6a3 3 0 0 1-3-3V7a3 3 0 0 1 3-3h4a3 3 0 0 1 3 3v1" /></symbol><symbol viewBox="0 0 20 20" fill="currentColor" id="pen"><path d="M13.586 3.586a2 2 0 1 1 2.828 2.828l-.793.793-2.828-2.828.793-.793zm-2.207 2.207L3 14.172V17h2.828l8.38-8.379-2.83-2.828z" /></symbol><symbol viewBox="0 0 20 20" fill="currentColor" id="photo"><path fill-rule="evenodd" d="M4 5a2 2 0 0 0-2 2v8a2 2 0 0 0 2 2h12a2 2 0 0 0 2-2V7a2 2 0 0 0-2-2h-1.586a1 1 0 0 1-.707-.293l-1.121-1.121A2 2 0 0 0 11.172 3H8.828a2 2 0 0 0-1.414.586L6.293 4.707A1 1 0 0 1 5.586 5H4zm6 9a3 3 0 1 0 0-6 3 3 0 0 0 0 6z" clip-rule="evenodd" /></symbol><symbol fill="none" viewBox="0 0 24 24" stroke="currentColor" stroke-width="2" id="post"><path stroke-linecap="round" stroke-linejoin="round" d="M8 10h.01M12 10h.01M16 10h.01M9 16H5a2 2 0 0 1-2-2V6a2 2 0 0 1 2-2h14a2 2 0 0 1 2 2v8a2 2 0 0 1-2 2h-5l-5 5v-5z" /></symbol><symbol viewBox="0 0 24 24" fill="currentColor" id="saved"><path d="M5 4a2 2 0 0 1 2-2h6a2 2 0 0 1 2 2v14l-5-2.5L5 18V4z" /></symbol><symbol fill="currentColor" viewBox="0 0 24 24" id="send"><path d="m21.5 11.1-17.9-9c-.9-.4-1.9.4-1.5 1.3l2.5 6.7L16 12 4.6 13.9l-2.5 6.7c-.3.9.6 1.7 1.5 1.2l17.9-9c.7-.3.7-1.3 0-1.7z" /></symbol><symbol viewBox="0 0 100 101" fill="none" id="spinner"><path d="M100 50.59c0 27.615-22.386 50.001-50 50.001s-50-22.386-50-50 22.386-50 50-50 50 22.386 50 50Zm-90.919 0c0 22.6 18.32 40.92 40.919 40.92 22.599 0 40.919-18.32 40.919-40.92 0-22.598-18.32-40.918-40.919-40.918-22.599 0-40.919 18.32-40.919 40.919Z" fill="#fff" /><path d="M93.968 39.04c2.425-.636 3.894-3.128 3.04-5.486A50 50 0 0 0 41.735 1.279c-2.474.414-3.922 2.919-3.285 5.344.637 2.426 3.12 3.849 5.6 3.484a40.916 40.916 0 0 1 44.131 25.769c.902 2.34 3.361 3.802 5.787 3.165Z" fill="#2563eb" /></symbol><symbol fill="none" viewBox="0 0 24 24" stroke="currentColor" stroke-width="2" id="tick"><path stroke-linecap="round" stroke-linejoin="round" d="m5 13 4 4L19 7" /></symbol><symbol fill="none" viewBox="0 0 24 24" stroke="currentColor" stroke-width="2" id="user"><path stroke-linecap="round" stroke-linejoin="round" d="M5.121 17.804A13.937 13.937 0 0 1 12 16c2.5 0 4.847.655 6.879 1.804M15 10a3 3 0 1 1-6 0 3 3 0 0 1 6 0zm6 2a9 9 0 1 1-18 0 9 9 0 0 1 18 0z" /></symbol></defs></svg>