<svg xmlns="http://www.w3.org/2000/svg">
	<symbol viewBox="0 0 24 24" id="send" fill="currentColor">
		<path d="M22.984.638a.5.5,0,0,0-.718-.559L1.783,10.819a1.461,1.461,0,0,0-.1,2.527h0l4.56,2.882a.25.25,0,0,0,.3-.024L18.7,5.336a.249.249,0,0,1,.361.342L9.346,17.864a.25.25,0,0,0,.062.367L15.84,22.3a1.454,1.454,0,0,0,2.19-.895Z" />
		<path d="M7.885,19.182a.251.251,0,0,0-.385.211c0,1.056,0,3.585,0,3.585a1,1,0,0,0,1.707.707l2.018-2.017a.251.251,0,0,0-.043-.388Z" />
	</symbol>
	<symbol id="photo" fill="currentColor" viewBox="0 0 20 20">
		<path fill-rule="evenodd" d="M4 5a2 2 0 00-2 2v8a2 2 0 002 2h12a2 2 0 002-2V7a2 2 0 00-2-2h-1.586a1 1 0 01-.707-.293l-1.121-1.121A2 2 0 0011.172 3H8.828a2 2 0 00-1.414.586L6.293 4.707A1 1 0 015.586 5H4zm6 9a3 3 0 100-6 3 3 0 000 6z" clip-rule="evenodd" />
	</symbol>
	<symbol id="close" fill="currentColor" viewBox="0 0 24 24" stroke="currentColor" stroke-width="2">
		<path stroke-linecap="round" stroke-linejoin="round" d="M6 18L18 6M6 6l12 12" />
	</symbol>
	<symbol id="dots" fill="none" viewBox="0 0 24 24" stroke="currentColor" stroke-width="2">
		<path stroke-linecap="round" stroke-linejoin="round" d="M12 5v.01M12 12v.01M12 19v.01M12 6a1 1 0 110-2 1 1 0 010 2zm0 7a1 1 0 110-2 1 1 0 010 2zm0 7a1 1 0 110-2 1 1 0 010 2z" />
	</symbol>
</svg>
